# AST/ASF file generated using VICON BodyLanguage
# -----------------------------------------------
:version 1.10
:name VICON
:units
  mass 1.0
  length 0.45
  angle deg
:documentation
   .ast/.asf automatically generated from VICON data using
   VICON BodyBuilder and BodyLanguage model FoxedUp or BRILLIANT.MOD
:root
   order TX TY TZ RX RY RZ
   axis XYZ
   position 0 0 0  
   orientation 0 0 0 
:bonedata
  begin
     id 1 
     name lhipjoint
     direction 0.625129 -0.738222 0.253461 
     length 2.5165 
     axis 0 0 0  XYZ
  end
  begin
     id 2 
     name lfemur
     direction 0.34202 -0.939693 0  
     length 7.54288  
     axis 0 0 20  XYZ
    dof rx ry rz
    limits (-160.0 20.0)
           (-70.0 70.0)
           (-60.0 70.0)
  end
  begin
     id 3 
     name ltibia
     direction 0.34202 -0.939693 0   
     length 7.71864   
     axis 0 0 20   XYZ
    dof rx
    limits (-10.0 170.0)
  end
  begin
     id 4 
     name lfoot
     direction 0.0772037 -0.212115 0.97419   
     length 2.18429   
     axis -90 7.62852e-016 20   XYZ
    dof rx rz
    limits (-45.0 90.0)
           (-70.0 20.0)
  end
  begin
     id 5 
     name ltoes
     direction 1.53513e-011 -4.21834e-011 1   
     length 1.09718   
     axis -90 7.62852e-016 20   XYZ
    dof rx
    limits (-90.0 20.0)
  end
  begin
     id 6 
     name rhipjoint
     direction -0.621946 -0.740623 0.254285   
     length 2.50835  
     axis 0 0 0  XYZ 
  end
  begin
     id 7 
     name rfemur
     direction -0.34202 -0.939693 0   
     length 7.43366   
     axis 0 0 -20   XYZ
    dof rx ry rz
    limits (-160.0 20.0)
           (-70.0 70.0)
           (-70.0 60.0)
  end
  begin
     id 8 
     name rtibia
     direction -0.34202 -0.939693 0   
     length 7.77122   
     axis 0 0 -20   XYZ
    dof rx
    limits (-10.0 170.0)
 end
 begin
     id 9 
     name rfoot
     direction -0.082694 -0.2272 0.970331   
     length 2.2293  
     axis -90 -7.62852e-016 -20   XYZ
    dof rx rz
    limits (-45.0 90.0)
           (-20.0 70.0)
  end
  begin
     id 10 
     name rtoes
     direction -1.53565e-011 -4.21695e-011 1   
     length 1.1178   
     axis -90 -7.62852e-016 -20   XYZ
    dof rx
    limits (-90.0 20.0)
  end
  begin
     id 11 
     name lowerback
     direction -0.000695208 0.988391 -0.151929   
     length 1.95077   
     axis 0 0 0   XYZ
    dof rx ry rz
    limits (-20.0 45.0)
           (-30.0 30.0)
           (-30.0 30.0)
  end
  begin
     id 12 
     name upperback
     direction -0.00268925 0.999885 -0.0149203   
     length 1.96246   
     axis 0 0 0   XYZ
    dof rx ry rz
    limits (-20.0 45.0)
           (-30.0 30.0)
           (-30.0 30.0)
  end
  begin
     id 13 
     name thorax
     direction -0.000848408 0.998481 0.0550912   
     length 2.00867   
     axis 0 0 0   XYZ
    dof rx ry rz
    limits (-20.0 45.0)
           (-30.0 30.0)
           (-30.0 30.0)
  end
  begin
     id 14 
     name lowerneck
     direction -0.00577709 0.998999 0.0443608   
     length 1.75762   
     axis 0 0 0   XYZ
    dof rx ry rz
    limits (-20.0 45.0)
           (-30.0 30.0)
           (-30.0 30.0)
  end
  begin
     id 15 
     name upperneck
     direction 0.0320945 0.999136 0.0264105   
     length 1.72601   
     axis 0 0 0   XYZ
    dof rx ry rz
    limits (-20.0 45.0)
           (-30.0 30.0)
           (-30.0 30.0)
  end
  begin
     id 16
     name head
     direction 0.0120552 0.999916 0.00480151  
     length 1.79973  
     axis 0 0 0   XYZ
    dof rx ry rz
    limits (-20.0 45.0)
           (-30.0 30.0)
           (-30.0 30.0)
  end
  begin
     id 17 
     name lclavicle
     direction 0.909 0.371533 -0.188897  
     length 3.47956  
     axis 0 0 0   XYZ
    dof ry rz
    limits (-20.0 10.0)
           (0.0 20.0)
  end
  begin
     id 18 
     name lhumerus
     direction 1 -4.48963e-011 -6.48352e-028   
     length 5.52302   
     axis 180 -30 -90   XYZ
    dof rx ry rz
    limits (-60.0 90.0)
           (-90.0 90.0)
           (-90.0 90.0)
  end
  begin
     id 19
     name lradius
     direction 1 -4.48968e-011 -4.78536e-027   
     length 3.58675   
     axis 180 -30 -90   XYZ
    dof rx
    limits (-10.0 170.0)
  end
  begin
     id 20
     name lwrist
     direction 1 -4.48942e-011 -9.9435e-027   
     length 1.79337   
     axis 8.54312e-015 90 90   XYZ
    dof ry
    limits (-180.0 0.0)
 end
  begin
     id 21 
     name lhand
     direction 1 -4.4904e-011 -1.9887e-026   
     length 0.536412   
     axis 1.26896e-014 90 90   XYZ
    dof rx rz
    limits (-90.0 90.0)
           (-45.0 45.0)
  end
  begin
     id 22 
     name lfingers
     direction 1 -4.48893e-011 -3.9774e-026   
     length 0.432469   
     axis 2.53792e-014 90 90   XYZ
    dof rx
    limits (0.0 90.0)
  end
  begin
     id 23
     name lthumb
     direction 0.707107 -6.34934e-011 0.707107   
     length 0.620942   
     axis -90 45 2.85299e-015   XYZ
    dof rx rz
    limits (-45.0 45.0)
           (-45.0 45.0)
  end
  begin
     id 24 
     name rclavicle
     direction -0.89595 0.416672 -0.153813   
     length 3.44099  
     axis 0 0 0   XYZ 
    dof ry rz
    limits (-10.0 20.0)
           (-20.0 0.0)
  end
  begin
     id 25 
     name rhumerus
     direction -1 -4.48952e-011 5.57804e-028  
     length 5.8478   
     axis 180 30 90   XYZ
    dof rx ry rz
    limits (-90.0 60.0)
           (-90.0 90.0)
           (-90.0 90.0)
  end
  begin
     id 26 
     name rradius
     direction -1 -4.48967e-011 -7.93646e-027   
     length 3.62717   
     axis 180 30 90   XYZ
    dof rx
    limits (-10.0 170.0)
  end
  begin
     id 27 
     name rwrist
     direction -1 -4.49008e-011 -9.9435e-027   
     length 1.81359   
     axis 8.54312e-015 -90 -90   XYZ
    dof ry
    limits (-180.0 0.0)
  end
  begin
     id 28
     name rhand
     direction -1 -4.48812e-011 -1.9887e-026   
     length 0.650516   
     axis 1.26896e-014 -90 -90   XYZ
    dof rx rz
    limits (-90.0 90.0)
           (-45.0 45.0)
  end
  begin
     id 29
     name rfingers
     direction -1 -4.49228e-011 -3.9774e-026   
     length 0.524463   
     axis 2.53792e-014 -90 -90   XYZ
    dof rx
    limits (0.0 90.0)
  end
  begin
     id 30
     name rthumb
     direction -0.707107 -6.34912e-011 0.707107   
     length 0.753027   
     axis -90 -45 -2.85299e-015   XYZ
    dof rx rz
    limits (-45.0 45.0)
           (-45.0 45.0)
  end
:hierarchy
  begin
    root lhipjoint rhipjoint lowerback
    lhipjoint lfemur
    lfemur ltibia
    ltibia lfoot
    lfoot ltoes
    rhipjoint rfemur
    rfemur rtibia
    rtibia rfoot
    rfoot rtoes
    lowerback upperback
    upperback thorax
    thorax lowerneck lclavicle rclavicle
    lowerneck upperneck
    upperneck head
    lclavicle lhumerus
    lhumerus lradius
    lradius lwrist
    lwrist lhand lthumb
    lhand lfingers
    rclavicle rhumerus
    rhumerus rradius
    rradius rwrist
    rwrist rhand rthumb
    rhand rfingers
  end

#!OML:ASF F:\VICON\USERDATA\INSTALL\rory3\rory3.ASF
:FULLY-SPECIFIED
:DEGREES
420
root -4.50939 17.6579 41.1497 1.6452 43.4688 -0.112748
lowerback 7.93585 -1.96332 -1.65118
upperback 1.0574 -2.76101 -0.607709
thorax -3.303 -1.348 0.590872
lowerneck 3.03122 1.61991 4.73208
upperneck 17.5814 2.54373 -1.47464
head 4.86586 1.54662 -1.15516
rclavicle 4.35835e-014 -3.18055e-015
rhumerus -37.7006 -14.4032 -73.309
rradius 17.9317
rwrist 25.6292
rhand -16.7573 16.1558
rfingers 7.12502
rthumb 9.4695 -13.6115
lclavicle 4.35835e-014 -3.18055e-015
lhumerus -21.4234 -14.6209 91.4666
lradius 44.9882
lwrist 14.5471
lhand -35.4462 19.2457
lfingers 7.12502
lthumb -8.57543 49.0516
rfemur -25.5229 15.1259 15.0042
rtibia 22.1756
rfoot 3.04782 -2.18522
rtoes -0.0905814
lfemur 13.4062 -3.3216 -29.2556
ltibia 18.8554
lfoot 3.46084 -16.0895
ltoes 5.46539
421
root -4.38975 17.6663 41.2622 1.70151 44.2387 0.245439
lowerback 8.24135 -2.09832 -1.46173
upperback 1.0455 -2.93222 -0.678329
thorax -3.49546 -1.43326 0.443027
lowerneck 3.07952 1.61475 4.91866
upperneck 17.698 2.58914 -1.79699
head 4.9011 1.5669 -1.2851
rclavicle 5.90887e-014 -5.56597e-015
rhumerus -37.4862 -14.7466 -73.1271
rradius 17.6017
rwrist 25.9168
rhand -16.8871 15.8544
rfingers 7.12502
rthumb 9.34431 -13.9185
lclavicle 5.90887e-014 -5.56597e-015
lhumerus -21.6845 -14.364 91.4907
lradius 44.4976
lwrist 14.6438
lhand -35.9234 19.505
lfingers 7.12502
lthumb -9.0359 49.2915
rfemur -25.1364 14.0305 15.1685
rtibia 23.5363
rfoot 1.9077 -2.13074
rtoes -1.77029
lfemur 13.2039 -3.63796 -29.3592
ltibia 20.4846
lfoot 5.22063 -15.7821
ltoes 6.20018
422
root -4.27167 17.6725 41.3867 1.10334 45.0487 -0.0819654
lowerback 8.46627 -2.2623 -1.02
upperback 1.27233 -3.10095 -0.480048
thorax -3.39523 -1.52212 0.423098
lowerneck 2.85427 1.63973 4.93318
upperneck 17.7976 2.67211 -2.19638
head 4.97553 1.58687 -1.40664
rclavicle 1.18277e-014 -5.96354e-015
rhumerus -36.8236 -15.0596 -72.9132
rradius 17.1744
rwrist 25.9722
rhand -17.0017 15.4083
rfingers 7.12502
rthumb 9.23373 -14.3695
lclavicle 1.18277e-014 -5.96354e-015
lhumerus -21.6457 -13.4763 91.538
lradius 43.665
lwrist 14.1381
lhand -35.505 19.6373
lfingers 7.12502
lthumb -8.63211 49.4408
rfemur -24.3822 13.6384 15.6931
rtibia 24.5386
rfoot 0.652611 -2.23881
rtoes -1.79794
lfemur 12.8327 -3.80015 -28.8322
ltibia 22.8235
lfoot 7.29752 -15.2003
ltoes 10.0237
423
root -4.15969 17.6804 41.5114 0.0514556 45.6472 -1.17414
lowerback 8.59496 -2.39937 -0.167445
upperback 1.46932 -3.18899 -0.11078
thorax -3.28694 -1.57396 0.337977
lowerneck 2.87459 1.69221 5.07243
upperneck 17.7414 2.81631 -2.70413
head 4.96682 1.63869 -1.58329
rclavicle 1.07592e-014 5.96354e-016
rhumerus -36.069 -15.265 -72.6834
rradius 16.5675
rwrist 26.1962
rhand -17.6168 15.4566
rfingers 7.12502
rthumb 8.64018 -14.3465
lclavicle 1.07592e-014 5.96354e-016
lhumerus -21.4948 -12.7984 91.6053
lradius 42.55
lwrist 13.9767
lhand -34.8755 22.377
lfingers 7.12502
lthumb -8.02463 52.2047
rfemur -23.6726 13.2231 16.7448
rtibia 25.2121
rfoot -0.193753 -2.00318
rtoes -1.38824
lfemur 11.9859 -3.30596 -27.5304
ltibia 25.5734
lfoot 9.42555 -14.8457
ltoes 12.5209
424
root -4.04598 17.6873 41.6256 -1.11579 46.463 -2.56229
lowerback 8.70791 -2.61098 1.03845
upperback 1.55634 -3.34353 0.244729
thorax -3.30642 -1.66072 0.0519721
lowerneck 2.94863 1.6792 5.23879
upperneck 17.8164 2.86027 -3.07595
head 4.98544 1.65371 -1.7263
rclavicle 6.16481e-014 -1.98785e-016
rhumerus -35.5632 -15.538 -72.4166
rradius 16.0994
rwrist 26.5749
rhand -18.291 15.41
rfingers 7.12502
rthumb 7.98949 -14.419
lclavicle 6.16481e-014 -1.98785e-016
lhumerus -21.3564 -12.1951 91.6772
lradius 41.1861
lwrist 13.7849
lhand -36.3913 23.3761
lfingers 7.12502
lthumb -9.48736 53.1425
rfemur -22.9319 12.0276 18.0091
rtibia 25.5952
rfoot -0.877969 -1.5535
rtoes -0.928685
lfemur 10.8544 -2.75467 -25.9276
ltibia 28.5045
lfoot 11.6952 -14.6678
ltoes 12.433
425
root -3.9396 17.6922 41.7436 -1.73918 47.4328 -3.21933
lowerback 8.78946 -2.85469 1.51104
upperback 1.61041 -3.61117 0.48967
thorax -3.31128 -1.79618 0.0746874
lowerneck 3.05495 1.6463 5.40187
upperneck 17.9024 2.87196 -3.39287
head 5.00019 1.65632 -1.85337
rclavicle 2.10215e-014 -3.18055e-015
rhumerus -35.1496 -15.7597 -72.2176
rradius 15.8983
rwrist 26.6843
rhand -18.5426 15.2191
rfingers 7.12502
rthumb 7.74664 -14.619
lclavicle 2.10215e-014 -3.18055e-015
lhumerus -21.4259 -11.2343 91.5692
lradius 39.7873
lwrist 13.0915
lhand -36.2884 27.4115
lfingers 7.12502
lthumb -9.38808 57.1825
rfemur -22.2078 10.697 18.6983
rtibia 25.9096
rfoot -1.65124 -1.07384
rtoes -0.346938
lfemur 9.66971 -2.56898 -24.9399
ltibia 31.3279
lfoot 14.2474 -14.1054
ltoes 11.7934
426
root -3.85575 17.7015 41.8904 -2.31386 48.0135 -3.7437
lowerback 8.94332 -2.81714 1.33468
upperback 1.62034 -3.56138 0.800208
thorax -3.35513 -1.76766 0.495009
lowerneck 3.13378 1.55917 5.64978
upperneck 18.0155 2.81421 -3.73467
head 5.02592 1.62994 -2.00489
rclavicle 9.61621e-015 -1.59028e-015
rhumerus -35.1104 -16.1695 -71.8183
rradius 15.983
rwrist 26.5654
rhand -18.7702 14.9404
rfingers 7.12502
rthumb 7.52697 -14.9057
lclavicle 9.61621e-015 -1.59028e-015
lhumerus -21.5743 -10.1249 91.3415
lradius 37.8411
lwrist 11.3492
lhand -33.5172 15.5019
lfingers 7.12502
lthumb -6.71354 45.3755
rfemur -21.5341 10.7437 19.283
rtibia 26.2455
rfoot -2.26232 -1.59185
rtoes 0.169052
lfemur 8.46138 -2.2484 -23.9643
ltibia 33.985
lfoot 17.1705 -13.2553
ltoes 12.3134
427
root -3.73701 17.7139 41.9946 -2.51946 49.1964 -3.94716
lowerback 8.71696 -2.99924 1.60928
upperback 1.7305 -3.77662 0.952705
thorax -3.1235 -1.87539 0.507994
lowerneck 2.99399 1.47124 5.78326
upperneck 18.0954 2.72964 -3.99525
head 5.07329 1.58366 -2.11091
rclavicle -4.33351e-014 1.73937e-014
rhumerus -34.9844 -16.6423 -71.3106
rradius 16.2073
rwrist 26.3558
rhand -18.7979 14.6891
rfingers 7.12502
rthumb 7.50027 -15.158
lclavicle -4.33351e-014 1.73937e-014
lhumerus -21.6195 -10.4807 91.8121
lradius 37.2472
lwrist 13.3804
lhand -35.6192 18.1066
lfingers 7.12502
lthumb -8.74237 47.9056
rfemur -20.8576 9.15268 19.5753
rtibia 26.5829
rfoot -3.00171 -1.43262
rtoes -0.379135
lfemur 7.19705 -2.24806 -23.3596
ltibia 36.4834
lfoot 19.8372 -12.812
ltoes 12.5277
428
root -3.61865 17.7315 42.0982 -2.58224 50.4554 -3.96235
lowerback 8.48856 -3.27695 1.65429
upperback 1.86577 -4.14289 1.07594
thorax -2.85272 -2.05598 0.632126
lowerneck 2.80738 1.44759 5.88191
upperneck 18.2325 2.71766 -4.16771
head 5.1488 1.57447 -2.18072
rclavicle 1.72818e-014 4.42296e-015
rhumerus -34.7077 -16.9731 -71.0544
rradius 16.5886
rwrist 26.2371
rhand -18.6025 14.3516
rfingers 7.12502
rthumb 7.68886 -15.4886
lclavicle 1.72818e-014 4.42296e-015
lhumerus -21.4819 -9.77495 91.812
lradius 36.0877
lwrist 13.9016
lhand -36.3869 19.285
lfingers 7.12502
lthumb -9.48308 49.0516
rfemur -20.1322 7.6924 19.6881
rtibia 26.7514
rfoot -3.62493 -1.40953
rtoes -1.29309
lfemur 5.88338 -2.26854 -22.9352
ltibia 38.9465
lfoot 21.7224 -12.9802
ltoes 11.8738
429
root -3.52889 17.7497 42.2416 -2.9741 51.0457 -4.40108
lowerback 8.7204 -3.07631 2.02916
upperback 1.5979 -3.83728 0.978399
thorax -3.28895 -1.91002 0.313196
lowerneck 2.94827 1.13356 5.9423
upperneck 18.5977 2.2575 -3.72894
head 5.21359 1.38995 -2.07229
rclavicle 9.40127e-014 -2.78299e-015
rhumerus -35.7413 -18.0027 -70.5075
rradius 17.352
rwrist 26.0549
rhand -18.3598 14.0182
rfingers 7.12502
rthumb 7.92307 -15.8134
lclavicle 9.40127e-014 -2.78299e-015
lhumerus -21.9816 -9.61893 91.603
lradius 34.4408
lwrist 13.363
lhand -36.4122 20.4003
lfingers 7.12502
lthumb -9.50754 50.1658
rfemur -19.44 8.44843 20.1388
rtibia 26.7801
rfoot -3.97666 -2.76028
rtoes -2.45423
lfemur 4.46422 -1.88136 -22.1146
ltibia 41.4088
lfoot 22.7865 -13.5369
ltoes 10.5591
430
root -3.44005 17.7691 42.3722 -3.69879 51.6635 -5.29209
lowerback 8.67918 -2.99677 2.19964
upperback 1.61724 -3.70412 1.28468
thorax -3.23481 -1.84324 0.515489
lowerneck 2.87288 0.924696 5.90567
upperneck 18.5891 1.97446 -3.73422
head 5.20827 1.25021 -2.07785
rclavicle 8.26199e-016 8.74653e-015
rhumerus -35.677 -18.6046 -69.9403
rradius 17.8006
rwrist 25.8653
rhand -17.7967 13.7601
rfingers 7.12502
rthumb 8.46657 -16.0502
lclavicle 8.26199e-016 8.74653e-015
lhumerus -21.7783 -8.79692 91.4991
lradius 32.5435
lwrist 12.697
lhand -35.7199 19.7517
lfingers 7.12502
lthumb -8.83952 49.5465
rfemur -18.7156 9.12311 20.879
rtibia 26.7039
rfoot -4.19289 -4.14928
rtoes -3.18128
lfemur 2.93356 -1.39376 -21.0745
ltibia 43.8874
lfoot 23.023 -14.9723
ltoes 6.37463
431
root -3.34579 17.7931 42.493 -4.31388 52.5541 -6.03267
lowerback 8.6391 -2.97665 2.50541
upperback 1.61952 -3.64412 1.42045
thorax -3.21976 -1.81499 0.476207
lowerneck 2.84743 0.6658 6.14182
upperneck 18.5944 1.63284 -3.80878
head 5.19913 1.09722 -2.15348
rclavicle -8.56762e-014 4.008e-014
rhumerus -35.6401 -19.4508 -69.484
rradius 18.1754
rwrist 25.7761
rhand -17.5344 13.6789
rfingers 7.12502
rthumb 8.71971 -16.121
lclavicle -8.56762e-014 4.008e-014
lhumerus -21.6952 -8.40296 91.2618
lradius 30.9027
lwrist 12.0437
lhand -35.0677 19.8601
lfingers 7.12502
lthumb -8.21008 49.6806
rfemur -17.9433 9.23775 21.4718
rtibia 26.5443
rfoot -4.4496 -5.39845
rtoes -2.46854
lfemur 1.33315 -0.926509 -20.1975
ltibia 46.3644
lfoot 21.1952 -15.9087
ltoes -5.86869
432
root -3.25378 17.8149 42.6028 -4.42104 53.4099 -6.14614
lowerback 8.68597 -2.96722 2.47308
upperback 1.61638 -3.63085 1.44797
thorax -3.24508 -1.80773 0.523732
lowerneck 2.61982 0.497537 6.17388
upperneck 18.7295 1.39217 -3.7771
head 5.26671 0.984915 -2.15757
rclavicle 1.57879e-014 -1.04362e-014
rhumerus -36.1879 -20.1427 -69.0286
rradius 19.2149
rwrist 25.6199
rhand -17.6956 13.7975
rfingers 7.12502
rthumb 8.56407 -16.0088
lclavicle 1.57879e-014 -1.04362e-014
lhumerus -21.3768 -7.11829 90.641
lradius 28.7727
lwrist 9.68702
lhand -33.361 18.1035
lfingers 7.12502
lthumb -6.56269 47.9819
rfemur -17.2696 9.20461 21.6221
rtibia 26.3874
rfoot -4.74004 -6.36273
rtoes -1.05108
lfemur -0.227652 -0.682654 -19.8226
ltibia 48.7529
lfoot 19.6152 -14.6568
ltoes -10.7001
